<?xml version="1.0" encoding="UTF-8"?>
<svg id="Camada_2" data-name="Camada 2" xmlns="http://www.w3.org/2000/svg" viewBox="0 0 1920 845.94">
  <defs>
    <style>
      .cls-1 {
        fill: #f4f4f4;
      }
    </style>
  </defs>
  <g id="Camada_1-2" data-name="Camada 1">
    <g id="g880">
      <path id="path860" class="cls-1" d="M72.73,279.48l-8.19,52.3c114.06,23.27,218.39,80.55,299.25,164.3l119.48-78.46s13.75-9.29,20.2-1.51c0,0,6.27,6.05-5.74,19l-98.12,101.76c71.02,88.44,114.22,195.96,124.14,308.95h55.92l88.59-566.39-595.52.04Z"/>
      <path id="path862" class="cls-1" d="M890.91,510.6h-71.25l23.36-147.21h80.56c46.41,0,54.43,4.26,61.58,13.99,6.48,9.61,9.56,21.11,8.74,32.68,2.49,53.11-38.55,98.19-91.67,100.68-3.77.18-7.55.13-11.31-.14M939.48,744.07c-20.24,13.91-33.54,17.96-82.82,17.96h-76.24l25.15-162.71h80.46c77.79,0,88.28,34.35,88.28,67.91,1.79,29.8-11.25,58.55-34.84,76.85M1006.01,547.58c53.95-27.83,87.9-83.4,88.06-144.1,1.19-32.66-10.85-64.42-33.4-88.08-25.19-26.09-55.74-35.86-112.61-35.86h-186.4l-1.81,11.57-72.7,461.27c-5.34,33.72-.88,93.07,73.29,93.35h128.09c97.55,4.68,180.43-70.6,185.11-168.15.26-5.39.27-10.78.04-16.17,2.33-48.1-24.27-92.95-67.61-113.96"/>
      <path id="path864" class="cls-1" d="M1232.62,531.04l26.64-167.64h75.65c69.81,0,82.52,18.74,82.52,55.66,2.99,58.91-42.34,109.1-101.26,112.09-4.12.21-8.25.18-12.37-.09l-71.19-.02ZM1368.92,602.44c85.09-19.7,144.96-96.04,143.81-183.38,0-89.93-56.17-139.5-158.21-139.5h-176.68l-1.81,11.63-74.66,479.13c-3.32,24.54-21.87,75.51,67.18,75.47h14.81l1.85-11.63,34.11-219.39h51.44l108.89,223.3,3.77,7.74h107.59l-9.98-19.9-112.11-223.46Z"/>
      <path id="path866" class="cls-1" d="M1716.75,510.6h-71.27l23.4-147.21h80.56c46.43,0,54.43,4.26,61.58,13.99,6.48,9.61,9.56,21.11,8.76,32.68,2.49,53.11-38.55,98.19-91.67,100.68-3.78.18-7.56.13-11.33-.14M1765.32,744.07c-20.2,13.91-33.52,17.96-82.8,17.96h-76.22l25.13-162.71h80.44c77.83,0,88.32,34.35,88.32,67.91,1.79,29.8-11.26,58.56-34.86,76.85M1831.87,547.58c53.94-27.84,87.89-83.4,88.04-144.1,1.2-32.66-10.84-64.43-33.4-88.08-25.19-26.11-55.76-35.86-112.61-35.86h-186.44l-1.81,11.59-72.54,460.25c-4.79,33.4-1.73,94.06,73.19,94.31h128.03c97.55,4.7,180.44-70.56,185.15-168.11.26-5.4.27-10.81.04-16.21,2.29-48.08-24.34-92.89-67.67-113.86"/>
      <path id="path868" class="cls-1" d="M187.14,682.9l-5.46-6.6,127.71-143.55c-69.95-69.33-158.43-117-254.8-137.3L2.5,728.35c-9.08,62.42,2.26,117.46,106.32,117.46h350.29c-9.45-95.61-45.73-186.6-104.67-262.48l-167.31,99.58Z"/>
      <path id="path870" class="cls-1" d="M880.95.43l-100.62,176.42c-3.93,6.85-1.56,15.59,5.3,19.52,2.17,1.25,4.64,1.9,7.14,1.89h3.93l26.64-46.98h80.74l6.88,46.98h27.7L909.65.43h-28.71ZM890.36,51.66l11.38,77.4h-66.67l43.93-77.16c3.56-6.07,6.48-11.79,9.37-17.86.51,5.89,1.18,11.79,1.96,17.68"/>
      <path id="path872" class="cls-1" d="M1897.56,194.38l-28.02-191.06c-.25-1.65-1.67-2.88-3.34-2.89h-23.83c-1.21,0-2.33.66-2.93,1.71l-98.65,172.91c-4.23,7.43-1.64,16.88,5.79,21.12,2.33,1.33,4.97,2.03,7.65,2.03,1.22,0,2.34-.65,2.95-1.71l25.66-45.19h80.74l6.44,44.09c.25,1.65,1.67,2.88,3.34,2.89h20.87c1.87,0,3.38-1.51,3.39-3.37,0-.19-.01-.37-.04-.56M1849.81,51.62l11.38,77.4h-66.67l43.93-77.16c3.56-6.07,6.48-11.79,9.37-17.86.51,5.89,1.18,11.79,1.96,17.68"/>
      <path id="path874" class="cls-1" d="M1198.88,42.91c0-16.03-7.86-42.91-60.38-42.91-18.96,0-35.54.29-47.94.86h-1.71l-37.65,177.68c-1.91,8.97,3.81,17.79,12.78,19.7,1.14.24,2.3.36,3.47.36h6.09l18.9-89.11h2.97l53.86,89.11h32.2l-46.57-73.9-4.56-7.25c-1.96-3.26-4.15-6.62-6.23-9.82,44.21-2.63,74.66-28.88,74.66-64.84M1171.41,45.66c0,25.54-22.71,42.76-56.51,42.76-6.62,0-14.01-.2-18.19-.39l14.01-65.49c5.78-.45,14.17-.71,23.95-.71,24.72,0,36.74,7.86,36.74,23.85"/>
      <path id="path876" class="cls-1" d="M1332.61,22.64h81.93l4.66-22.2h-108.54l-37.49,176.99c-1.98,9.32,3.98,18.48,13.3,20.45,1.18.25,2.38.37,3.58.37h87.26l4.64-22.69h-81.89l14.8-68.04h78.22l4.66-22.2h-78.2l13.09-62.68Z"/>
      <path id="path878" class="cls-1" d="M1631.56.43l-11.55,54.76c-6.68,31.56-14.93,74.92-19.88,102.07-2.53-10.24-5.62-20.96-9.06-31.44L1553.08.43h-30.97l-37.06,174.87c-2.17,10.24,4.37,20.31,14.62,22.48,1.29.27,2.61.41,3.93.41h1.96l13.28-61.09c5.8-28.22,14.19-71.28,18.82-97.1,2.42,9.45,4.85,17.88,8.09,28.25l38.86,129.94h30.67L1657.32.43h-25.76Z"/>
    </g>
  </g>
</svg>